PathFileType	4	(X/Y/Z)	C:/Users/beibeiliu/ov580/test_trc\sequence.2_training_dense_right.trc
DataRate	CameraRate	NumFrames	NumMarkers	Units	OrigDataRate	OrigDataStartFrame	OrigNumFrames
120	120	10	19	mm	120	40	313
Frame#	Time	ThumbCMC			ThumbMCP			ThumbIP			ThumbTip			IndexMCP			IndexPIP			IndexTip			MiddleMCP			MiddlePIP			MiddleTip			RingMCP			RingPIP			RingTip			PinkyMCP			PinkyPIP			PinkyTip			BackHand1			BackHand2			BackHand3	
		X0	Y0	Z0	X1	Y1	Z1	X2	Y2	Z2	X3	Y3	Z3	X4	Y4	Z4	X5	Y5	Z5	X6	Y6	Z6	X7	Y7	Z7	X8	Y8	Z8	X9	Y9	Z9	X10	Y10	Z10	X11	Y11	Z11	X12	Y12	Z12	X13	Y13	Z13	X14	Y14	Z14	X15	Y15	Z15	X16	Y16	Z16	X17	Y17	Z17	X18	Y18	Z18	
39	0.325	199.557	-18.6052	1.32011	192.622	17.6792	1.21276	176.708	35.5059	4.10333	161.525	46.6916	13.3149	163.734	18.9096	-32.9175	169.631	43.4712	-17.3059	181.266	25.5644	6.3715	144.79	25.8833	-24.0847	150.142	51.0251	-8.43445	166.725	55.8942	17.0452	134.945	24.8064	-1.57746	153.118	37.8319	12.0826	173.609	22.6637	24.382	130.761	14.5311	11.2027	149.637	26.4633	23.5296	170.332	10.5902	23.3733	140.545	-29.4147	2.27184	154.09	-49.3063	16.3059	168.298	-37.0283	-11.1743	
40	0.333333	196.31	-14.6437	0.669573	194.099	17.6262	3.1573	185.193	40.2473	1.69142	168.037	55.704	4.61786	164.302	21.1017	-36.5476	165.823	44.4336	-19.0473	176.415	27.2048	6.75992	142.849	24.8361	-26.5476	150.388	49.5016	-14.9516	164.772	51.634	15.4641	132.811	21.8868	-5.10417	150.284	39.7101	8.61108	168.235	28.2951	24.8722	127.276	16.813	11.8942	148.112	27.4627	22.4957	167.943	12.8412	24.4153	141.814	-26.837	-1.709	152.367	-47.5561	13.2797	166.686	-34.5027	-7.76354	
41	0.341667	194.674	-14.0975	2.87173	196.507	18.7485	3.71716	182.723	40.9803	-0.782374	166.476	59.7097	1.55541	167.064	21.5874	-39.8395	167.788	45.723	-22.9323	177.885	35.222	2.15733	146.468	27.8031	-31.8557	148.888	51.2195	-16.3831	162.025	51.9658	13.7365	133.799	26.3136	-9.96678	149.055	41.0965	2.70158	167.597	25.4994	22.7169	126.084	16.2059	6.83707	149.821	28.198	15.9777	165.188	14.1663	22.5685	141.094	-28.2979	-2.65759	151.497	-42.2012	12.2374	170.817	-34.1382	-9.29349	
42	0.35	193.775	-14.0174	2.4261	194.86	19.3045	2.30098	177.537	41.6103	-1.55662	157.631	55.8322	0.510397	165.376	22.7061	-41.0496	168.112	44.443	-29.1233	179.008	39.622	-2.29787	144.975	27.1693	-33.12	148.686	50.2865	-23.8726	165.202	61.293	2.63515	139.141	24.6249	-16.5499	152.684	41.3997	0.318618	169.489	27.9371	14.7388	127.2	18.8824	2.06458	145.906	31.586	13.619	165.782	13.221	19.8389	142.276	-27.1557	-4.56878	149.838	-41.3945	11.5928	169.933	-32.1606	-11.4455	
43	0.358333	197.048	-13.2098	2.3503	192.774	19.5408	0.426654	177.573	39.3638	-3.12022	159.527	51.8007	-2.63563	167.622	15.9477	-43.1746	174.525	46.2428	-32.9044	183.31	45.9784	-8.14665	149.314	20.7059	-36.6888	155.851	50.4655	-30.8068	169.798	59.3991	-6.00847	139.474	23.1482	-21.6838	156.43	40.7331	-3.95464	166.699	25.4738	13.7133	128.901	21.9435	-3.63103	149.124	31.9816	6.62798	164.051	13.7628	16.2046	144.018	-26.5518	-5.95882	150.586	-41.571	10.2845	168.814	-34.6321	-7.2714	
44	0.366667	193.061	-10.9322	1.29721	193.462	19.7308	-0.341227	182.164	41.1359	-6.09701	164.686	57.6537	-8.16968	171.752	18.1509	-49.1265	176.116	42.7273	-41.8941	181.485	49.2888	-12.6389	152.942	21.2838	-43.3162	157.196	48.2077	-32.0676	174.122	44.117	-5.46056	141.869	26.319	-25.6157	158.289	41.5462	-9.53491	167.955	25.7123	8.30559	134.332	19.8207	-10.3661	150.427	32.6905	3.47871	165.53	15.0434	8.94721	143.295	-25.1065	-10.8398	152.617	-40.4539	14.0229	172.857	-34.9628	-8.16503	
45	0.375	195.2	-11.7712	0.778709	194.792	21.4842	-5.71475	186.372	43.1043	-13.954	171.092	61.4138	-18.2376	171.37	10.6532	-49.5693	178.259	39.6215	-46.7931	187.037	50.0598	-19.181	156.606	18.0496	-46.5666	163.309	44.6716	-37.6404	175.457	34.7423	-6.9867	144.661	19.5674	-29.9937	159.027	40.5963	-15.3839	171.051	26.4964	3.96198	132.928	22.1325	-13.3916	149.801	33.4919	-5.38306	165.413	17.5246	11.3757	148.177	-25.7281	-9.55492	151.179	-41.517	14.6425	175.701	-34.9408	-11.7797	
46	0.383333	199.478	-12.4187	-1.09335	196.52	18.3675	-8.24213	187.326	42.664	-18.996	176.769	55.7846	-21.7725	175.885	8.75193	-52.6772	176.629	36.9562	-49.2687	187.363	48.6336	-22.0014	156.615	15.771	-46.8486	166.407	42.705	-37.4886	177.427	30.9626	-9.89614	145.932	18.2963	-32.565	161.189	39.4493	-19.3214	173.018	24.8326	0.593667	133.249	23.0494	-15.123	153.699	33.5957	-2.5204	167.624	16.415	4.18175	143.496	-22.9716	-10.0002	150.779	-38.9315	11.298	172.128	-35.9787	-9.71746	
47	0.391667	198.023	-16.888	1.1202	201.023	17.7864	-11.2656	193.14	38.5539	-21.1044	176.026	53.064	-26.6859	177.724	4.05045	-53.9193	178.048	34.7729	-51.2128	193.605	45.1083	-30.0516	155.329	15.1921	-48.6721	168.846	41.3537	-39.6567	183.75	29.7435	-13.6314	146.322	17.679	-33.1649	162.613	39.3878	-19.3623	175.02	24.604	-2.62505	136.912	21.2955	-17.0036	156.728	32.7647	-11.0194	171.227	17.0729	1.14965	144.315	-25.9587	-6.86377	154.778	-40.015	15.3693	174.09	-38.713	-6.00897	
48	0.4	201.431	-17.9708	-0.0473437	204.81	14.3292	-12.7182	193.109	35.6109	-25.7232	180.02	49.9199	-29.2957	177.336	4.70606	-56.9345	185.963	27.3181	-57.4138	194.303	40.9575	-33.1617	156.727	10.8663	-51.7614	169.75	36.7825	-50.6754	186.485	36.345	-22.3218	150.87	16.5755	-37.5106	164.949	36.7444	-27.4068	176.714	19.8573	-2.17576	138.645	19.0468	-18.9342	156.818	35.3378	-11.1255	172.658	17.7169	-1.46693	146.287	-25.3907	-4.39863	151.961	-37.5238	15.2536	173.898	-39.787	-5.79116	
